<?xml version="1.0" encoding="UTF-8" standalone="no"?>
<!-- Created with Inkscape (http://www.inkscape.org/) -->

<svg
   version="1.1"
   id="svg9"
   xml:space="preserve"
   width="1050.0331"
   height="348.82013"
   viewBox="0 0 1050.033 348.82011"
   sodipodi:docname="InvarionLogoCropped.svg"
   inkscape:version="1.1 (c68e22c387, 2021-05-23)"
   xmlns:inkscape="http://www.inkscape.org/namespaces/inkscape"
   xmlns:sodipodi="http://sodipodi.sourceforge.net/DTD/sodipodi-0.dtd"
   xmlns="http://www.w3.org/2000/svg"
   xmlns:svg="http://www.w3.org/2000/svg"><defs
     id="defs13"><clipPath
       clipPathUnits="userSpaceOnUse"
       id="clipPath33"><path
         d="M 0,800 H 800 V 0 H 0 Z"
         id="path31" /></clipPath></defs><sodipodi:namedview
     id="namedview11"
     pagecolor="#505050"
     bordercolor="#ffffff"
     borderopacity="1"
     inkscape:pageshadow="0"
     inkscape:pageopacity="0"
     inkscape:pagecheckerboard="1"
     showgrid="false"
     inkscape:zoom="0.75843744"
     inkscape:cx="143.05728"
     inkscape:cy="402.80184"
     inkscape:window-width="1920"
     inkscape:window-height="1017"
     inkscape:window-x="-8"
     inkscape:window-y="-8"
     inkscape:window-maximized="1"
     inkscape:current-layer="g15"
     fit-margin-top="0"
     fit-margin-left="0"
     fit-margin-right="0"
     fit-margin-bottom="0"><inkscape:grid
       type="xygrid"
       id="grid696"
       originx="-11.428532"
       originy="-130.44432" /></sodipodi:namedview><g
     id="g15"
     inkscape:groupmode="layer"
     inkscape:label="InvarionLogo"
     transform="matrix(1.3333333,0,0,-1.3333333,-11.428533,936.22238)"><g
       id="g694"><g
         id="g39"
         transform="translate(117.3975,598.0498)"><path
           d="m 0,0 c 1.252,1.217 2.721,2.184 4.404,2.9 1.682,0.715 3.454,1.075 5.318,1.075 1.861,0 3.652,-0.36 5.371,-1.075 1.719,-0.716 3.222,-1.683 4.511,-2.9 1.29,-1.219 2.31,-2.65 3.062,-4.297 0.752,-1.648 1.128,-3.437 1.128,-5.371 0,-1.934 -0.376,-3.743 -1.128,-5.425 -0.752,-1.683 -1.791,-3.152 -3.115,-4.404 -1.326,-1.254 -2.847,-2.239 -4.566,-2.954 -1.718,-0.717 -3.545,-1.074 -5.478,-1.074 -1.934,0 -3.725,0.376 -5.371,1.128 -1.649,0.751 -3.099,1.753 -4.351,3.007 -1.254,1.252 -2.221,2.721 -2.9,4.405 -0.682,1.681 -1.021,3.454 -1.021,5.317 0,1.934 0.376,3.723 1.128,5.371 C -2.256,-2.65 -1.254,-1.219 0,0 m -7.48,-45.989 124.455,23.11 -23.582,126.996 -126.996,-23.582 23.58,-126.986 z"
           style="fill:#f3b913;fill-opacity:1;fill-rule:nonzero;stroke:none"
           id="path41" /></g><g
         id="g43"
         transform="translate(115.7324,452.3857)"><path
           d="m 0,0 v 73.691 c 0,3.438 -0.198,6.373 -0.591,8.809 -0.394,2.434 -1.2,4.439 -2.417,6.016 -1.219,1.574 -2.937,2.72 -5.156,3.437 -2.221,0.715 -5.156,1.145 -8.809,1.289 v 4.404 l 38.979,7.087 v 12.6 H -107.161 V -11.834 H 22.006 V 0 Z"
           style="fill:#2a3c74;fill-opacity:1;fill-rule:nonzero;stroke:none"
           id="path45" /></g><g
         id="g47"
         transform="translate(232.0024,452.3857)"><path
           d="m 0,0 v 56.934 c 0,1.933 0.017,4.082 0.054,6.445 0.035,2.363 -0.037,4.762 -0.215,7.197 -0.18,2.434 -0.521,4.797 -1.021,7.09 -0.502,2.291 -1.289,4.351 -2.363,6.177 -1.074,1.826 -2.524,3.276 -4.351,4.35 -1.826,1.075 -4.1,1.612 -6.821,1.612 -2.65,0 -5.156,-0.575 -7.519,-1.719 -2.364,-1.147 -4.549,-2.686 -6.553,-4.619 -2.006,-1.934 -3.814,-4.136 -5.425,-6.607 -1.611,-2.47 -2.973,-5.048 -4.082,-7.734 -1.111,-2.686 -1.971,-5.355 -2.578,-8.003 -0.609,-2.65 -0.913,-5.121 -0.913,-7.412 V 0 h -22.022 v 73.691 c 0,3.58 -0.214,6.588 -0.644,9.024 -0.43,2.433 -1.289,4.421 -2.578,5.962 -1.289,1.539 -3.08,2.648 -5.371,3.33 -2.293,0.68 -5.301,1.091 -9.024,1.235 v 4.404 l 39.639,7.09 V 76.592 h 0.43 c 1.574,3.652 3.598,7.179 6.069,10.581 2.471,3.4 5.264,6.408 8.379,9.023 3.115,2.614 6.553,4.69 10.312,6.231 3.76,1.539 7.751,2.309 11.978,2.309 4.797,0 8.897,-0.789 12.3,-2.363 3.401,-1.576 6.158,-3.76 8.272,-6.553 2.111,-2.793 3.652,-6.088 4.619,-9.882 0.967,-3.797 1.449,-7.879 1.449,-12.247 V 0 Z"
           style="fill:#2a3c74;fill-opacity:1;fill-rule:nonzero;stroke:none"
           id="path49" /></g><g
         id="g51"
         transform="translate(329.4736,452.3857)"><path
           d="m 0,0 h -16.006 l -31.689,78.096 c -1.362,3.437 -2.597,6.338 -3.706,8.701 -1.112,2.363 -2.436,4.313 -3.975,5.854 -1.541,1.539 -3.491,2.703 -5.854,3.492 -2.364,0.787 -5.479,1.359 -9.346,1.718 v 4.405 h 36.738 l 30.83,-77.452 29.863,77.452 h 12.569 z"
           style="fill:#2a3c74;fill-opacity:1;fill-rule:nonzero;stroke:none"
           id="path53" /></g><g
         id="g55"
         transform="translate(426.2998,501.2627)"><path
           d="m 0,0 c -3.592,-0.145 -7.365,-0.521 -11.316,-1.128 -3.952,-0.609 -7.599,-1.719 -10.939,-3.33 -3.34,-1.611 -6.088,-3.832 -8.243,-6.66 -2.155,-2.83 -3.232,-6.536 -3.232,-11.118 0,-2.078 0.25,-4.136 0.753,-6.177 0.503,-2.041 1.276,-3.867 2.318,-5.479 1.041,-1.611 2.405,-2.937 4.094,-3.974 1.688,-1.039 3.717,-1.558 6.089,-1.558 3.664,0 6.789,0.806 9.376,2.417 2.585,1.611 4.705,3.688 6.359,6.231 1.651,2.541 2.854,5.387 3.61,8.54 0.753,3.15 1.131,6.3 1.131,9.453 z m 0,-48.877 v 12.998 c -2.006,-2.435 -3.975,-4.602 -5.908,-6.499 -1.934,-1.898 -4.012,-3.51 -6.231,-4.834 -2.22,-1.326 -4.637,-2.345 -7.251,-3.061 -2.615,-0.715 -5.604,-1.075 -8.969,-1.075 -3.51,0 -7.02,0.61 -10.528,1.827 -3.509,1.216 -6.678,2.917 -9.507,5.102 -2.83,2.184 -5.121,4.834 -6.875,7.949 -1.755,3.116 -2.631,6.607 -2.631,10.474 0,4.726 0.929,8.825 2.793,12.3 1.861,3.472 4.332,6.445 7.412,8.916 3.078,2.47 6.623,4.493 10.634,6.069 4.01,1.574 8.165,2.828 12.461,3.76 4.297,0.93 8.576,1.593 12.837,1.987 4.26,0.393 8.181,0.661 11.763,0.806 v 11.279 5.693 c 0,2.149 -0.091,4.297 -0.269,6.446 -0.179,2.148 -0.52,4.26 -1.02,6.338 -0.502,2.076 -1.273,3.902 -2.31,5.478 -1.039,1.574 -2.381,2.847 -4.028,3.814 -1.648,0.966 -3.725,1.45 -6.23,1.45 -3.438,0 -6.161,-0.645 -8.164,-1.934 -2.006,-1.289 -3.545,-2.991 -4.62,-5.102 -1.074,-2.114 -1.772,-4.512 -2.094,-7.198 -0.323,-2.685 -0.484,-5.424 -0.484,-8.217 H -55.43 c 0.93,5.8 2.578,10.616 4.942,14.448 2.363,3.83 5.317,6.892 8.862,9.184 3.545,2.292 7.644,3.921 12.3,4.888 4.654,0.967 9.738,1.45 15.254,1.45 6.945,0 12.729,-0.752 17.348,-2.255 4.62,-1.504 8.326,-3.797 11.119,-6.875 2.792,-3.081 4.761,-7.001 5.908,-11.763 1.144,-4.764 1.718,-10.404 1.718,-16.919 v -66.924 z"
           style="fill:#2a3c74;fill-opacity:1;fill-rule:nonzero;stroke:none"
           id="path57" /></g><g
         id="g59"
         transform="translate(530.7539,536.873)"><path
           d="m 0,0 c -1.934,0.607 -3.832,0.913 -5.693,0.913 -5.014,0 -9.311,-0.843 -12.891,-2.524 -3.582,-1.684 -6.536,-3.993 -8.862,-6.929 -2.328,-2.938 -4.047,-6.41 -5.157,-10.42 -1.111,-4.012 -1.665,-8.344 -1.665,-12.998 v -52.529 h -22.021 v 73.691 c 0,3.58 -0.215,6.588 -0.645,9.024 -0.429,2.433 -1.272,4.42 -2.524,5.961 -1.254,1.54 -3.026,2.649 -5.317,3.331 -2.293,0.679 -5.264,1.09 -8.916,1.235 v 4.404 l 39.423,7.09 V -8.755 h 0.43 c 1.002,3.293 2.237,6.66 3.706,10.098 1.467,3.437 3.277,6.553 5.425,9.345 2.148,2.793 4.727,5.084 7.734,6.875 3.008,1.79 6.553,2.686 10.635,2.686 2.004,0 3.991,-0.091 5.962,-0.269 1.969,-0.179 3.921,-0.448 5.855,-0.805 V -1.772 C 3.76,-1.2 1.934,-0.609 0,0"
           style="fill:#2a3c74;fill-opacity:1;fill-rule:nonzero;stroke:none"
           id="path61" /></g><g
         id="g63"
         transform="translate(576.5547,588.3818)"><path
           d="m 0,0 c 0,-1.934 -0.376,-3.743 -1.128,-5.425 -0.752,-1.683 -1.791,-3.152 -3.115,-4.404 -1.326,-1.254 -2.847,-2.239 -4.566,-2.954 -1.718,-0.717 -3.545,-1.074 -5.478,-1.074 -1.934,0 -3.725,0.376 -5.371,1.128 -1.649,0.751 -3.099,1.753 -4.351,3.007 -1.254,1.252 -2.22,2.721 -2.9,4.405 -0.682,1.681 -1.021,3.454 -1.021,5.317 0,1.934 0.376,3.723 1.128,5.371 0.752,1.647 1.754,3.078 3.008,4.297 1.252,1.217 2.721,2.184 4.404,2.9 1.682,0.715 3.454,1.075 5.318,1.075 1.861,0 3.652,-0.36 5.371,-1.075 1.719,-0.716 3.222,-1.683 4.512,-2.9 C -2.9,8.449 -1.88,7.018 -1.128,5.371 -0.376,3.723 0,1.934 0,0 m -25.459,-135.996 v 73.691 c 0,3.438 -0.198,6.373 -0.591,8.809 -0.394,2.433 -1.2,4.439 -2.417,6.016 -1.219,1.574 -2.937,2.72 -5.156,3.437 -2.221,0.715 -5.156,1.145 -8.809,1.289 v 4.404 l 38.994,7.09 v -104.736 z"
           style="fill:#2a3c74;fill-opacity:1;fill-rule:nonzero;stroke:none"
           id="path65" /></g><g
         id="g67"
         transform="translate(664.3584,503.4111)"><path
           d="m 0,0 c 0,2.721 -0.054,5.747 -0.161,9.077 -0.108,3.33 -0.395,6.714 -0.86,10.152 -0.466,3.437 -1.181,6.767 -2.148,9.99 -0.967,3.222 -2.328,6.086 -4.082,8.594 -1.756,2.505 -3.939,4.528 -6.553,6.069 -2.615,1.539 -5.819,2.309 -9.614,2.309 -3.797,0 -7.019,-0.77 -9.668,-2.309 -2.65,-1.541 -4.834,-3.564 -6.553,-6.069 -1.718,-2.508 -3.061,-5.372 -4.028,-8.594 -0.967,-3.223 -1.665,-6.553 -2.095,-9.99 -0.429,-3.438 -0.698,-6.822 -0.805,-10.152 -0.108,-3.33 -0.162,-6.356 -0.162,-9.077 0,-2.65 0.054,-5.64 0.162,-8.97 0.107,-3.33 0.411,-6.697 0.913,-10.097 0.5,-3.403 1.235,-6.714 2.202,-9.937 0.967,-3.223 2.309,-6.088 4.028,-8.594 1.719,-2.507 3.884,-4.53 6.499,-6.069 2.613,-1.541 5.782,-2.31 9.507,-2.31 3.867,0 7.144,0.752 9.829,2.256 2.686,1.504 4.904,3.492 6.66,5.962 1.754,2.471 3.097,5.299 4.029,8.487 0.929,3.185 1.611,6.48 2.041,9.882 0.429,3.401 0.679,6.785 0.752,10.152 C -0.037,-5.873 0,-2.793 0,0 m 24.17,0 c 0,-8.164 -0.843,-15.56 -2.524,-22.183 -1.684,-6.625 -4.405,-12.246 -8.165,-16.865 -3.759,-4.619 -8.666,-8.182 -14.716,-10.688 -6.053,-2.506 -13.447,-3.76 -22.183,-3.76 -8.594,0 -15.917,1.289 -21.968,3.867 -6.052,2.578 -10.957,6.212 -14.717,10.903 -3.759,4.69 -6.499,10.33 -8.217,16.919 -1.719,6.588 -2.578,13.858 -2.578,21.807 0,8.234 0.822,15.665 2.47,22.29 1.647,6.623 4.351,12.263 8.111,16.919 3.759,4.654 8.647,8.234 14.663,10.742 6.015,2.506 13.427,3.76 22.236,3.76 8.234,0 15.343,-1.361 21.323,-4.082 C 3.884,46.906 8.825,43.146 12.729,38.35 16.632,33.551 19.514,27.876 21.377,21.323 23.238,14.771 24.17,7.662 24.17,0"
           style="fill:#2a3c74;fill-opacity:1;fill-rule:nonzero;stroke:none"
           id="path69" /></g><g
         id="g71"
         transform="translate(774.0752,452.3857)"><path
           d="m 0,0 v 56.934 c 0,1.933 0.017,4.082 0.054,6.445 0.035,2.363 -0.037,4.762 -0.215,7.197 -0.18,2.434 -0.521,4.797 -1.021,7.09 -0.502,2.291 -1.289,4.351 -2.363,6.177 -1.074,1.826 -2.524,3.276 -4.351,4.35 -1.826,1.075 -4.1,1.612 -6.821,1.612 -2.65,0 -5.156,-0.575 -7.519,-1.719 -2.364,-1.147 -4.549,-2.686 -6.553,-4.619 -2.006,-1.934 -3.814,-4.136 -5.425,-6.607 -1.611,-2.47 -2.973,-5.048 -4.082,-7.734 -1.111,-2.686 -1.971,-5.355 -2.578,-8.003 -0.609,-2.65 -0.913,-5.121 -0.913,-7.412 V 0 h -22.022 v 73.691 c 0,3.58 -0.214,6.588 -0.644,9.024 -0.43,2.433 -1.289,4.421 -2.578,5.962 -1.289,1.539 -3.08,2.648 -5.371,3.33 -2.293,0.68 -5.301,1.091 -9.024,1.235 v 4.404 l 39.639,7.09 V 76.592 h 0.43 c 1.574,3.652 3.598,7.179 6.069,10.581 2.471,3.4 5.264,6.408 8.379,9.023 3.115,2.614 6.553,4.69 10.312,6.231 3.76,1.539 7.751,2.309 11.978,2.309 4.797,0 8.897,-0.789 12.3,-2.363 3.4,-1.576 6.158,-3.76 8.271,-6.553 2.111,-2.793 3.652,-6.088 4.619,-9.882 0.967,-3.797 1.45,-7.879 1.45,-12.247 L 22.021,0 Z"
           style="fill:#2a3c74;fill-opacity:1;fill-rule:nonzero;stroke:none"
           id="path73" /></g></g></g></svg>
