<svg id="b308d4a2-5812-434c-8c33-ab0237131ebe" data-name="Layer 1" xmlns="http://www.w3.org/2000/svg" viewBox="0 0 69.83 87.13"><defs><style>.a44f7c7a-98ce-4490-88e7-56bf29de73d4{fill:#293c74;}.b6c253ae-6a74-48dd-96e7-5b025e0f0de9{fill:#0bf;}.e733f410-1283-415f-850e-505c69dd2e46{fill:#4474a9;}.acc6bed3-287a-4fab-ada6-9a065eaa40f4{fill:#fff;}</style></defs><title>RapidPlan Online - Symbol</title><path class="a44f7c7a-98ce-4490-88e7-56bf29de73d4" d="M23.27,17.23V48.66H11.43A26.87,26.87,0,0,1,23.27,17.23Z"/><path class="a44f7c7a-98ce-4490-88e7-56bf29de73d4" d="M60,26.47H28.82V14.74A26.87,26.87,0,0,1,60,26.47Z"/><path class="b6c253ae-6a74-48dd-96e7-5b025e0f0de9" d="M63.85,40.34a26.78,26.78,0,0,1-8.18,19.3l-5,5.09V32H62.53A26.89,26.89,0,0,1,63.85,40.34Z"/><path class="b6c253ae-6a74-48dd-96e7-5b025e0f0de9" d="M45.14,54.21v16.2L37,78.76,18.36,59.7l-.06-.06A26.78,26.78,0,0,1,14,54.21Z"/><rect class="e733f410-1283-415f-850e-505c69dd2e46" x="28.82" y="32.02" width="16.32" height="16.64"/><path class="acc6bed3-287a-4fab-ada6-9a065eaa40f4" d="M60,26.47H28.82V14.74a26.66,26.66,0,0,0-5.55,2.49V48.66H11.43A26.59,26.59,0,0,0,14,54.21H45.14v16.2l5.55-5.68V32H62.53A27.08,27.08,0,0,0,60,26.47ZM45.14,48.66H28.82V32H45.14Z"/></svg>