<svg id="f987ac1b-007f-4d3f-8632-58175f778c78" data-name="Layer 1" xmlns="http://www.w3.org/2000/svg" viewBox="0 0 69.83 70.46"><defs><style>.a7dfb19f-cc82-4a89-a0de-da3ca358b79e{fill:#293c74;}.e1bc20ea-d639-4ad2-87bf-7c545d441da9{fill:#f68303;}.b3b4b8a9-22f0-41de-811f-63894a361d4f{fill:#4474a9;}.a3800b19-981a-47e0-b525-9e3e9be4ed7a{fill:#fff;}</style></defs><title>RapidPlan Symbol</title><path class="a7dfb19f-cc82-4a89-a0de-da3ca358b79e" d="M31.2,21.4a21.38,21.38,0,0,1,18.64-3.74L58.63,20A26.87,26.87,0,1,0,22.8,57.22V38.45A21.35,21.35,0,0,1,31.2,21.4Z"/><path class="e1bc20ea-d639-4ad2-87bf-7c545d441da9" d="M41.06,46.12V59.74A26.84,26.84,0,0,0,61.62,39.28l-13.89.11A6.75,6.75,0,0,0,41.06,46.12Z"/><path class="b3b4b8a9-22f0-41de-811f-63894a361d4f" d="M61.31,26.4,48.43,23A16,16,0,0,0,28.3,38.45V59.4a26.78,26.78,0,0,0,7.09,1h.17V46.12A12.26,12.26,0,0,1,47.69,33.89l14.56-.11c0-.1,0-.2,0-.3A26.7,26.7,0,0,0,61.31,26.4Z"/><path class="a3800b19-981a-47e0-b525-9e3e9be4ed7a" d="M34.55,25.76A15.89,15.89,0,0,1,48.43,23L61.31,26.4A26.19,26.19,0,0,0,58.63,20l-8.79-2.34a21.52,21.52,0,0,0-27,20.79V57.22a26.27,26.27,0,0,0,5.5,2.18V38.45A15.9,15.9,0,0,1,34.55,25.76Z"/><path class="a3800b19-981a-47e0-b525-9e3e9be4ed7a" d="M35.56,46.12V60.35a26.26,26.26,0,0,0,5.5-.61V46.12a6.75,6.75,0,0,1,6.67-6.73l13.89-.11a25.54,25.54,0,0,0,.63-5.5l-14.56.11A12.26,12.26,0,0,0,35.56,46.12Z"/></svg>