<svg id="Layer_1" data-name="Layer 1" xmlns="http://www.w3.org/2000/svg" viewBox="0 0 69.83 70.46"><defs><style>.cls-1{fill:#293c74;}.cls-2{fill:#aa11ed;}.cls-3{fill:#4474a9;}.cls-4{fill:#fff;}</style></defs><path class="cls-1" d="M30.72,17.36a21.38,21.38,0,0,1,18.64-3.74L58.15,16A26.87,26.87,0,1,0,14.68,47.13C16.83,49.58,22.32,55,22.32,55V34.41A21.35,21.35,0,0,1,30.72,17.36Z"/><path class="cls-2" d="M40.58,42.08v20c8-8.22,18.32-16.61,20.56-26.84l-13.89.11A6.75,6.75,0,0,0,40.58,42.08Z"/><path class="cls-3" d="M60.83,22.36,48,18.94A16,16,0,0,0,27.82,34.41V60.63l7.09,7.26.17-.18V42.08A12.26,12.26,0,0,1,47.21,29.85l14.56-.11c0-.1,0-.2,0-.3A26.7,26.7,0,0,0,60.83,22.36Z"/><path class="cls-4" d="M34.07,21.72A15.89,15.89,0,0,1,48,18.94l12.88,3.42A26.19,26.19,0,0,0,58.15,16l-8.79-2.34a21.52,21.52,0,0,0-27,20.79V55l5.5,5.63V34.41A15.9,15.9,0,0,1,34.07,21.72Z"/><path class="cls-4" d="M35.08,42.08V67.71l5.5-5.63v-20a6.75,6.75,0,0,1,6.67-6.73l13.89-.11a25.54,25.54,0,0,0,.63-5.5l-14.56.11A12.26,12.26,0,0,0,35.08,42.08Z"/></svg>