<svg id="f45b983c-3337-422f-9ef2-789d756fca7e" data-name="Layer 1" xmlns="http://www.w3.org/2000/svg" viewBox="0 0 69.83 70.46"><defs><style>.e51e0c93-b2bb-47e0-83bf-d5e616b16159{fill:#293c74;}.a5edbcdf-3069-417c-bcc2-ccdd0df74b0d{fill:#f1b81b;}.eb208e57-faa6-4d92-a55f-bae2868355f2{fill:#4474a9;}.f952d42a-1ef9-4f4a-b54c-ff57d2630169{fill:#fff;}</style></defs><title>RapidPlan - Symbol</title><path class="e51e0c93-b2bb-47e0-83bf-d5e616b16159" d="M21.67,19.6V10.37A26.88,26.88,0,0,0,9.84,41.8H21.67Z"/><path class="e51e0c93-b2bb-47e0-83bf-d5e616b16159" d="M58.4,19.6A26.93,26.93,0,0,0,27.22,7.87V19.6Z"/><path class="a5edbcdf-3069-417c-bcc2-ccdd0df74b0d" d="M49.1,56.58A26.83,26.83,0,0,0,60.93,25.15H49.1Z"/><path class="a5edbcdf-3069-417c-bcc2-ccdd0df74b0d" d="M12.37,47.35A26.87,26.87,0,0,0,43.55,59.08V47.35Z"/><rect class="eb208e57-faa6-4d92-a55f-bae2868355f2" x="27.22" y="25.15" width="16.32" height="16.65"/><path class="f952d42a-1ef9-4f4a-b54c-ff57d2630169" d="M27.22,19.6V7.87a27.47,27.47,0,0,0-5.55,2.5V41.8H9.84a26.56,26.56,0,0,0,2.53,5.55H43.55V59.08a26.93,26.93,0,0,0,5.55-2.5V25.15H60.93A26.06,26.06,0,0,0,58.4,19.6ZM43.55,41.8H27.22V25.15H43.55Z"/></svg>